<svg width="48" height="48" viewBox="0 0 48 48" fill="none" xmlns="http://www.w3.org/2000/svg">
<circle cx="24" cy="24" r="23.5" transform="matrix(-1 0 0 1 48 0)" stroke="#2C71A5"/>
<path d="M20.46 23.29L26.12 17.64C26.213 17.5463 26.3236 17.4719 26.4454 17.4211C26.5673 17.3704 26.698 17.3442 26.83 17.3442C26.962 17.3442 27.0927 17.3704 27.2146 17.4211C27.3365 17.4719 27.4471 17.5463 27.54 17.64C27.7263 17.8274 27.8308 18.0809 27.8308 18.345C27.8308 18.6092 27.7263 18.8627 27.54 19.05L22.59 24.05L27.54 29C27.7263 29.1874 27.8308 29.4409 27.8308 29.705C27.8308 29.9692 27.7263 30.2227 27.54 30.41C27.4474 30.5045 27.337 30.5797 27.2151 30.6312C27.0932 30.6827 26.9623 30.7095 26.83 30.71C26.6977 30.7095 26.5668 30.6827 26.445 30.6312C26.3231 30.5797 26.2126 30.5045 26.12 30.41L20.46 24.76C20.3585 24.6664 20.2775 24.5527 20.2221 24.4262C20.1667 24.2997 20.1381 24.1631 20.1381 24.025C20.1381 23.8869 20.1667 23.7503 20.2221 23.6238C20.2775 23.4973 20.3585 23.3837 20.46 23.29Z" fill="#2C71A5"/>
</svg>
