<svg width="48" height="48" viewBox="0 0 48 48" fill="none" xmlns="http://www.w3.org/2000/svg">
<circle cx="24" cy="24" r="23.5" stroke="#2C71A5"/>
<path d="M27.54 23.29L21.88 17.64C21.787 17.5463 21.6764 17.4719 21.5546 17.4211C21.4327 17.3704 21.302 17.3442 21.17 17.3442C21.038 17.3442 20.9073 17.3704 20.7854 17.4211C20.6636 17.4719 20.553 17.5463 20.46 17.64C20.2738 17.8274 20.1692 18.0809 20.1692 18.345C20.1692 18.6092 20.2738 18.8627 20.46 19.05L25.41 24.05L20.46 29C20.2738 29.1874 20.1692 29.4409 20.1692 29.705C20.1692 29.9692 20.2738 30.2227 20.46 30.41C20.5526 30.5045 20.6631 30.5797 20.7849 30.6312C20.9068 30.6827 21.0377 30.7095 21.17 30.71C21.3023 30.7095 21.4332 30.6827 21.5551 30.6312C21.677 30.5797 21.7874 30.5045 21.88 30.41L27.54 24.76C27.6415 24.6664 27.7225 24.5527 27.7779 24.4262C27.8333 24.2997 27.8619 24.1631 27.8619 24.025C27.8619 23.8869 27.8333 23.7503 27.7779 23.6238C27.7225 23.4973 27.6415 23.3837 27.54 23.29Z" fill="#2C71A5"/>
</svg>
