<svg width="66" height="66" viewBox="0 0 66 66" fill="none" xmlns="http://www.w3.org/2000/svg">
<path d="M62.3264 29.7082C61.4969 28.5336 60.2836 27.6481 58.9099 27.2121L48.7165 23.987C48.497 22.3909 47.4887 21.0423 46.0995 20.3491V6.06732C46.0995 5.27652 45.94 4.50892 45.6267 3.78676L44.3806 0.912612C44.1447 0.364465 43.6062 0.00676725 43.0107 0C43.0049 0 43.0001 0 42.9943 0C42.4046 0 41.8671 0.344163 41.6215 0.879742L39.1689 6.21233C38.5675 7.51745 38.4071 9.01107 38.7164 10.4177L41.0202 20.8605C39.8939 21.7393 39.1669 23.1082 39.1669 24.6444C39.1669 24.7449 39.1708 24.8445 39.1776 24.9441L28.1257 31.3246C27.6636 31.5914 27.505 32.1831 27.7718 32.6452C27.9507 32.9555 28.2755 33.1286 28.61 33.1286C28.7744 33.1286 28.9406 33.087 29.0924 32.999L39.7141 26.8669C39.8823 27.1879 40.0863 27.4866 40.3193 27.7602L40.299 28.1701L32.9633 34.8774C32.652 35.1626 32.3069 35.4014 31.9337 35.5919L25.8142 33.6555C25.5938 32.0594 24.5874 30.7117 23.1972 30.0176V15.7358C23.1972 14.9489 23.0386 14.1812 22.7245 13.4552L21.4773 10.5791C21.2395 10.0329 20.702 9.67523 20.1065 9.66943C20.1007 9.66943 20.0959 9.66943 20.0901 9.66943C19.5013 9.66943 18.9638 10.0136 18.7173 10.5492L16.2646 15.8818C15.6633 17.1878 15.5028 18.6815 15.8132 20.0871L18.1169 30.53C16.9897 31.4087 16.2627 32.7776 16.2627 34.3148C16.2627 34.4153 16.2666 34.5149 16.2733 34.6135L3.9057 41.7539C3.22318 42.1484 2.63829 42.6694 2.16652 43.3027L0.299728 45.8201C-0.056036 46.2976 -0.0966395 46.9425 0.195319 47.4616C0.464075 47.9401 0.971619 48.2331 1.513 48.2331C1.5594 48.2331 1.60581 48.2311 1.65318 48.2263L7.49815 47.6849C8.9299 47.5515 10.3037 46.9434 11.3661 45.9728L17.1579 40.677L16.546 52.9537C16.5199 53.4874 16.9298 53.9408 17.4634 53.9678C17.4798 53.9678 17.4963 53.9688 17.5127 53.9688C18.0241 53.9688 18.4514 53.5666 18.4775 53.0504L19.1871 38.8227L19.2567 38.7599C19.8145 38.988 20.4246 39.1147 21.0636 39.1147C21.661 39.1147 22.2333 39.0035 22.7612 38.8034L24.0199 64.0675H17.9294L18.289 56.8623C18.3151 56.3286 17.9052 55.8752 17.3716 55.8482C16.836 55.8201 16.3845 56.232 16.3574 56.7656L15.993 64.0665H8.23384C7.7002 64.0665 7.26709 64.4996 7.26709 65.0332C7.26709 65.5669 7.7002 66 8.23384 66H57.7682C58.3018 66 58.7349 65.5669 58.7349 65.0332C58.7349 64.4996 58.3018 64.0665 57.7682 64.0665H49.2453L47.5051 29.1552L58.9863 35.7852C59.6707 36.1806 60.4142 36.4262 61.1982 36.517L64.3121 36.8757C64.3701 36.8825 64.4281 36.8854 64.4851 36.8854C65.0139 36.8854 65.5118 36.6069 65.7854 36.1448C66.089 35.6325 66.0629 34.9867 65.7187 34.5004L62.3283 29.7111L62.3264 29.7082ZM46.8284 24.6869C46.8284 24.6956 46.8284 24.7034 46.8284 24.7121C46.7926 26.2608 45.5223 27.5098 43.9649 27.5098C42.4075 27.5098 41.0995 26.2241 41.0995 24.6444C41.0995 23.0647 42.3843 21.7789 43.9649 21.7789C45.5455 21.7789 46.8304 23.0647 46.8304 24.6444C46.8304 24.6589 46.8304 24.6724 46.8294 24.6869H46.8284ZM40.6035 10.002C40.3841 9.00527 40.4981 7.94668 40.9245 7.0215L42.9817 2.54835L43.8528 4.55726C44.0606 5.0358 44.166 5.54431 44.166 6.06829V19.8522C44.0993 19.8493 44.0316 19.8474 43.9649 19.8474C43.5656 19.8474 43.178 19.8967 42.8067 19.9895L40.6035 10.003V10.002ZM34.2674 36.3034L40.1607 30.9147L39.718 39.7933L39.4221 39.3747C38.5907 38.2011 37.3775 37.3146 36.0057 36.8796L34.2452 36.3227C34.2529 36.316 34.2607 36.3101 34.2674 36.3034ZM25.6711 35.6383L35.4208 38.7241C36.3933 39.0325 37.2537 39.6609 37.8434 40.4933L39.7644 43.206C39.7644 43.206 39.7682 43.2108 39.7702 43.2137L40.6896 44.5121L38.5134 44.2617C37.9952 44.2017 37.5022 44.0383 37.0478 43.7764L25.1094 36.8844C25.353 36.5025 25.5435 36.0839 25.6721 35.6383H25.6711ZM17.7003 19.6685C17.4798 18.6728 17.5939 17.6142 18.0202 16.689L20.0785 12.2149L20.9495 14.2238C21.1573 14.7052 21.2637 15.2147 21.2637 15.7368V29.5207C21.197 29.5178 21.1293 29.5158 21.0616 29.5158C20.6624 29.5158 20.2757 29.5651 19.9044 29.6579L17.7012 19.6705L17.7003 19.6685ZM10.06 44.544C9.30693 45.2323 8.33342 45.6635 7.31833 45.7582L2.41401 46.2126L3.71815 44.454C4.03041 44.0345 4.41905 43.6884 4.87245 43.4264L16.8099 36.5344C16.9559 36.8129 17.1279 37.0748 17.3242 37.3185L17.2933 37.9304L10.06 44.544ZM18.1952 34.3128C18.1952 32.7332 19.48 31.4474 21.0607 31.4474C22.6413 31.4474 23.9261 32.7332 23.9261 34.3128C23.9261 35.8925 22.6403 37.1783 21.0607 37.1783C19.481 37.1783 18.1952 35.8935 18.1952 34.3128ZM24.6976 38.8798L36.0801 45.4508C36.7646 45.8462 37.508 46.0917 38.2911 46.1826L39.3931 46.3092L38.5086 64.0646H25.9524L24.6976 38.8798ZM40.444 64.0646L41.3179 46.5306L41.405 46.5403C41.463 46.5471 41.521 46.55 41.578 46.55C42.1068 46.55 42.6047 46.2715 42.8792 45.8085C43.1828 45.2961 43.1567 44.6513 42.8125 44.165L41.5258 42.3475L42.1861 29.1011C42.7362 29.3215 43.3356 29.4433 43.963 29.4433C44.5247 29.4433 45.0641 29.3457 45.5658 29.1668L47.305 64.0636H40.443L40.444 64.0646ZM61.4167 34.5942C60.8975 34.5342 60.4035 34.3709 59.9501 34.1089L48.0127 27.2159C48.2563 26.8341 48.4468 26.4155 48.5744 25.9708L58.325 29.0557C59.2985 29.3641 60.158 29.9924 60.7467 30.8248L63.5919 34.8436L61.4167 34.5932V34.5942Z" fill="white"/>
<path d="M52.8513 7.36373H62.3148C64.345 7.36373 65.9962 5.71252 65.9962 3.68235C65.9962 1.65218 64.345 0 62.3148 0H60.5031C59.9695 0 59.5363 0.433104 59.5363 0.96675C59.5363 1.5004 59.9695 1.9335 60.5031 1.9335H62.3148C63.2786 1.9335 64.0627 2.71753 64.0627 3.68138C64.0627 4.64523 63.2786 5.42927 62.3148 5.42927H52.8513C52.3176 5.42927 51.8845 5.86237 51.8845 6.39602C51.8845 6.92966 52.3176 7.36277 52.8513 7.36277V7.36373Z" fill="white"/>
<path d="M50.1171 13.5346H58.4476C59.4115 13.5346 60.1955 14.3186 60.1955 15.2825C60.1955 16.2463 59.4115 17.0303 58.4476 17.0303H56.6359C56.1023 17.0303 55.6692 17.4634 55.6692 17.9971C55.6692 18.5307 56.1023 18.9638 56.6359 18.9638H58.4476C60.4778 18.9638 62.129 17.3126 62.129 15.2825C62.129 13.2523 60.4778 11.6011 58.4476 11.6011H50.1171C49.5835 11.6011 49.1504 12.0342 49.1504 12.5678C49.1504 13.1015 49.5835 13.5346 50.1171 13.5346Z" fill="white"/>
<path d="M0.96675 11.601H9.29723C10.2611 11.601 11.0451 12.385 11.0451 13.3489C11.0451 14.3127 10.2611 15.0967 9.29723 15.0967H7.48554C6.9519 15.0967 6.51879 15.5299 6.51879 16.0635C6.51879 16.5971 6.9519 17.0302 7.48554 17.0302H9.29723C11.3274 17.0302 12.9786 15.379 12.9786 13.3489C12.9786 11.3187 11.3274 9.66748 9.29723 9.66748H0.96675C0.433104 9.66748 0 10.1006 0 10.6342C0 11.1679 0.433104 11.601 0.96675 11.601Z" fill="white"/>
<path d="M0.96675 7.36373H9.29723C11.3274 7.36373 12.9786 5.71252 12.9786 3.68235C12.9786 1.65218 11.3274 0 9.29723 0H7.48554C6.9519 0 6.51879 0.433104 6.51879 0.96675C6.51879 1.5004 6.9519 1.9335 7.48554 1.9335H9.29723C10.2611 1.9335 11.0451 2.71753 11.0451 3.68138C11.0451 4.64523 10.2611 5.42927 9.29723 5.42927H0.96675C0.433104 5.42927 0 5.86237 0 6.39602C0 6.92966 0.433104 7.36277 0.96675 7.36277V7.36373Z" fill="white"/>
</svg>
