<svg width="68" height="68" viewBox="0 0 68 68" fill="none" xmlns="http://www.w3.org/2000/svg">
<path d="M67.0148 32.8089C67.0148 30.8996 66.3386 29.0404 65.0991 27.5136C65.48 26.6211 65.6737 25.6899 65.6737 24.7344C65.6737 23.0753 65.0846 21.4646 64.0016 20.1412C64.297 19.4117 64.4471 18.6499 64.4471 17.8704C64.4471 14.2423 61.2208 11.2904 57.257 11.2904C53.2932 11.2904 50.067 14.2423 50.067 17.8704C50.067 18.6499 50.2171 19.4117 50.5124 20.1412C49.4311 21.4662 48.8404 23.0769 48.8404 24.7344C48.8404 25.6899 49.0341 26.6227 49.4149 27.5136C48.1755 29.0404 47.4992 30.8996 47.4992 32.8089C47.4992 37.4586 51.4307 41.282 56.4194 41.671V48.1219H34.8396V44.0693C39.4037 43.6561 42.9899 39.8618 42.9899 35.2524C42.9899 30.367 38.9648 26.3935 34.0148 26.3935C29.0649 26.3935 25.0398 30.367 25.0398 35.2524C25.0398 39.8618 28.6275 43.6577 33.1901 44.0693V48.1219H12.1493V35.7802C16.1842 35.3621 19.3426 31.9196 19.3426 27.7476C19.3426 26.074 18.8213 24.4407 17.8643 23.0802C18.8213 21.7212 19.3426 20.0863 19.3426 18.4127C19.3426 16.739 18.8213 15.1041 17.8643 13.7452C18.8213 12.3847 19.3426 10.7514 19.3426 9.07771C19.3426 4.62166 15.7452 1 11.3246 1C6.90407 1 3.30662 4.62166 3.30662 9.0761C3.30662 10.7497 3.82792 12.3847 4.78498 13.7436C3.82792 15.1025 3.30662 16.7358 3.30662 18.4111C3.30662 20.0863 3.82792 21.718 4.78498 23.0785C3.82792 24.4375 3.30662 26.0724 3.30662 27.746C3.30662 31.918 6.46508 35.3621 10.4983 35.7785V48.1203H1.91542C1.45867 48.1203 1.0907 48.4898 1.0907 48.945C1.0907 49.4001 1.46029 49.7697 1.91542 49.7697H66.1901C66.6452 49.7697 67.0148 49.4001 67.0148 48.945C67.0148 48.4898 66.6452 48.1203 66.1901 48.1203H58.0704V41.6694C63.0704 41.2901 67.0148 37.4635 67.0148 32.8073V32.8089ZM26.6908 35.2524C26.6908 31.2773 29.9768 28.043 34.0165 28.043C38.0561 28.043 41.3405 31.2773 41.3405 35.2524C41.3405 39.2275 38.0545 42.4618 34.0165 42.4618C29.9784 42.4618 26.6908 39.2275 26.6908 35.2524ZM4.95767 27.746C4.95767 26.2338 5.49027 24.7651 6.45701 23.6079C6.71201 23.3013 6.71201 22.8558 6.45701 22.5492C5.49027 21.392 4.95767 19.9233 4.95767 18.4111C4.95767 16.8988 5.49027 15.4285 6.45701 14.2729C6.71201 13.9663 6.71201 13.5209 6.45701 13.2142C5.49027 12.057 4.95767 10.5867 4.95767 9.07448C4.95767 5.5303 7.81271 2.64782 11.3246 2.64782C14.8365 2.64782 17.6932 5.5303 17.6932 9.07448C17.6932 10.5851 17.159 12.0554 16.1922 13.2142C15.9372 13.5209 15.9372 13.9663 16.1922 14.2729C17.1606 15.4301 17.6932 16.8988 17.6932 18.4111C17.6932 19.9233 17.159 21.392 16.1922 22.5492C15.9372 22.8558 15.9372 23.3013 16.1922 23.6079C17.159 24.7651 17.6932 26.2354 17.6932 27.746C17.6932 31.2886 14.8365 34.1711 11.3246 34.1711C7.81271 34.1711 4.95767 31.2886 4.95767 27.746ZM49.1503 32.8073C49.1503 31.132 49.8055 29.4971 50.9982 28.2044C51.2322 27.9494 51.2839 27.5733 51.1241 27.2651C50.7045 26.4581 50.4914 25.606 50.4914 24.7328C50.4914 23.3174 51.0563 21.9375 52.0844 20.8481C52.3249 20.5947 52.3781 20.217 52.2183 19.9072C51.8859 19.2568 51.718 18.5708 51.718 17.8704C51.718 15.1525 54.2035 12.9415 57.2586 12.9415C60.3138 12.9415 62.7993 15.1525 62.7993 17.8704C62.7993 18.5725 62.6298 19.2584 62.2989 19.9072C62.1392 20.217 62.1924 20.5963 62.4329 20.8497C63.461 21.9375 64.0258 23.3174 64.0258 24.7344C64.0258 25.6076 63.8128 26.4597 63.3932 27.2667C63.2334 27.5749 63.2834 27.951 63.5191 28.206C64.7101 29.4987 65.367 31.1337 65.367 32.8089C65.367 36.8066 61.7308 40.0603 57.2603 40.0603C52.7897 40.0603 49.1535 36.8082 49.1535 32.8089L49.1503 32.8073Z" fill="white" stroke="white" stroke-width="0.5"/>
<path d="M1.18432 64.0899C2.653 65.9395 4.84471 66.9999 7.19298 66.9999C9.22007 66.9999 11.1277 66.2106 12.5561 64.8065C13.986 66.2106 15.8937 66.9999 17.9191 66.9999C19.9446 66.9999 21.8539 66.2106 23.2822 64.8065C24.7122 66.2106 26.6198 66.9999 28.6453 66.9999C30.6708 66.9999 32.5801 66.2106 34.0084 64.8065C35.4383 66.2106 37.346 66.9999 39.3731 66.9999C41.4002 66.9999 43.3062 66.2106 44.7362 64.8065C46.1661 66.2106 48.0738 66.9999 50.0993 66.9999C52.1247 66.9999 54.0324 66.2106 55.4624 64.8065C56.8907 66.2106 58.8 66.9999 60.8254 66.9999C63.1737 66.9999 65.3654 65.9379 66.8341 64.0899C67.1181 63.7316 67.0584 63.2136 66.7018 62.9311C66.3451 62.6471 65.827 62.7084 65.543 63.0635C64.389 64.516 62.6685 65.3504 60.8254 65.3504C58.9823 65.3504 57.2635 64.5176 56.1079 63.0635C55.7932 62.6697 55.1299 62.6697 54.8152 63.0635C53.6612 64.516 51.9408 65.3504 50.0977 65.3504C48.2545 65.3504 46.5357 64.5176 45.3818 63.0635C45.2252 62.8666 44.9863 62.752 44.7346 62.752C44.4828 62.752 44.2456 62.8666 44.089 63.0635C42.9334 64.516 41.2146 65.3504 39.3715 65.3504C37.5284 65.3504 35.8079 64.5176 34.654 63.0635C34.3393 62.6697 33.6743 62.6681 33.3612 63.0635C32.2073 64.516 30.4884 65.3504 28.6437 65.3504C26.799 65.3504 25.0818 64.5176 23.9262 63.0635C23.6115 62.6697 22.9465 62.6681 22.6334 63.0635C21.4795 64.516 19.7606 65.3504 17.9159 65.3504C16.0712 65.3504 14.354 64.5176 13.1984 63.0635C12.8837 62.6697 12.2188 62.6681 11.9056 63.0635C10.7517 64.516 9.03286 65.3504 7.18814 65.3504C5.34342 65.3504 3.6262 64.5176 2.47062 63.0635C2.18819 62.7068 1.66689 62.6455 1.31182 62.9311C0.955144 63.2136 0.895429 63.7333 1.17948 64.0899H1.18432Z" fill="white" stroke="white" stroke-width="0.5"/>
<path d="M7.19298 58.6074C9.22007 58.6074 11.1277 57.8182 12.5561 56.4157C13.986 57.8198 15.8937 58.6074 17.9191 58.6074C19.9446 58.6074 21.8539 57.8182 23.2822 56.4157C24.7122 57.8198 26.6198 58.6074 28.6453 58.6074C30.6708 58.6074 32.5801 57.8182 34.0084 56.4157C35.4383 57.8198 37.346 58.6074 39.3731 58.6074C41.4002 58.6074 43.3062 57.8182 44.7362 56.4157C46.1661 57.8198 48.0738 58.6074 50.0993 58.6074C52.1247 58.6074 54.0324 57.8182 55.4624 56.4157C56.8907 57.8198 58.8 58.6074 60.8254 58.6074C63.1737 58.6074 65.3654 57.5471 66.8341 55.6975C67.1181 55.3408 67.0584 54.8228 66.7018 54.5387C66.3451 54.2547 65.827 54.316 65.543 54.6727C64.389 56.1252 62.6685 56.9596 60.8254 56.9596C58.9823 56.9596 57.2635 56.1268 56.1079 54.6727C55.7932 54.2789 55.1299 54.2789 54.8152 54.6727C53.6612 56.1252 51.9408 56.9596 50.0977 56.9596C48.2545 56.9596 46.5357 56.1268 45.3818 54.6727C45.2252 54.4758 44.9863 54.3612 44.7346 54.3612C44.4828 54.3612 44.2456 54.4758 44.089 54.6727C42.9334 56.1252 41.2146 56.9596 39.3715 56.9596C37.5284 56.9596 35.8079 56.1268 34.654 54.6727C34.3393 54.2789 33.6743 54.2773 33.3612 54.6727C32.2073 56.1252 30.4884 56.9596 28.6437 56.9596C26.799 56.9596 25.0818 56.1268 23.9262 54.6727C23.6115 54.2789 22.9465 54.2773 22.6334 54.6727C21.4795 56.1252 19.7606 56.9596 17.9159 56.9596C16.0712 56.9596 14.354 56.1268 13.1984 54.6727C12.8837 54.2789 12.2188 54.2773 11.9056 54.6727C10.7517 56.1252 9.03286 56.9596 7.18814 56.9596C5.34342 56.9596 3.6262 56.1268 2.47062 54.6727C2.18819 54.316 1.66689 54.2547 1.31182 54.5387C0.955144 54.8228 0.895429 55.3408 1.17948 55.6975C2.64816 57.5471 4.83987 58.6074 7.18814 58.6074H7.19298Z" fill="white" stroke="white" stroke-width="0.5"/>
<path d="M39.9058 12.3023C39.9058 9.07123 37.2622 6.44214 34.015 6.44214C30.7678 6.44214 28.1226 9.07123 28.1226 12.3023C28.1226 15.5334 30.7662 18.1625 34.015 18.1625C37.2638 18.1625 39.9058 15.5334 39.9058 12.3023ZM34.015 16.5114C31.6764 16.5114 29.772 14.6231 29.772 12.3023C29.772 9.98148 31.6748 8.09157 34.015 8.09157C36.3552 8.09157 38.2564 9.97987 38.2564 12.3023C38.2564 14.6248 36.3536 16.5114 34.015 16.5114Z" fill="white" stroke="white" stroke-width="0.5"/>
<path d="M34.8396 3.84697V1.82472C34.8396 1.36959 34.47 1 34.0149 1C33.5598 1 33.1902 1.36959 33.1902 1.82472V3.84536C33.1902 4.30048 33.5598 4.67007 34.0149 4.67007C34.47 4.67007 34.8396 4.30048 34.8396 3.84536V3.84697Z" fill="white" stroke="white" stroke-width="0.5"/>
<path d="M27.9965 7.14741C28.2079 7.14741 28.421 7.0651 28.5824 6.90371C28.9035 6.58092 28.9019 6.05801 28.5791 5.73684L27.1411 4.3069C26.8183 3.98573 26.2954 3.98895 25.9742 4.31013C25.6531 4.63291 25.6547 5.15582 25.9775 5.477L27.4155 6.90694C27.5769 7.06672 27.7867 7.14741 27.9965 7.14741Z" fill="white" stroke="white" stroke-width="0.5"/>
<path d="M23.4712 11.4775C23.0161 11.4775 22.6465 11.8471 22.6465 12.3023C22.6465 12.7574 23.0161 13.127 23.4712 13.127H25.5048C25.9599 13.127 26.3295 12.7574 26.3295 12.3023C26.3295 11.8471 25.9599 11.4775 25.5048 11.4775H23.4712Z" fill="white" stroke="white" stroke-width="0.5"/>
<path d="M26.5585 20.5364C26.7699 20.5364 26.9797 20.4557 27.1411 20.296L28.5791 18.866C28.9019 18.5449 28.9035 18.0219 28.5824 17.6992C28.2612 17.3764 27.7383 17.3748 27.4155 17.6959L25.9775 19.1243C25.6547 19.4454 25.6531 19.9683 25.9742 20.2911C26.1356 20.4541 26.3471 20.5348 26.5585 20.5348V20.5364Z" fill="white" stroke="white" stroke-width="0.5"/>
<path d="M33.1899 20.7593V22.7799C33.1899 23.2351 33.5595 23.6046 34.0147 23.6046C34.4698 23.6046 34.8394 23.2351 34.8394 22.7799V20.7593C34.8394 20.3042 34.4698 19.9346 34.0147 19.9346C33.5595 19.9346 33.1899 20.3042 33.1899 20.7593Z" fill="white" stroke="white" stroke-width="0.5"/>
<path d="M40.8884 20.2978C41.0498 20.4575 41.2596 20.5382 41.4694 20.5382C41.6792 20.5382 41.8923 20.4576 42.0537 20.2945C42.3748 19.9718 42.3732 19.4488 42.0504 19.1277L40.6124 17.6993C40.2896 17.3782 39.7667 17.3798 39.4456 17.7026C39.1244 18.0254 39.1244 18.5483 39.4488 18.8694L40.8868 20.2994L40.8884 20.2978Z" fill="white" stroke="white" stroke-width="0.5"/>
<path d="M44.5585 13.127C45.0136 13.127 45.3832 12.7574 45.3832 12.3023C45.3832 11.8471 45.0136 11.4775 44.5585 11.4775H42.5249C42.0682 11.4775 41.7002 11.8471 41.7002 12.3023C41.7002 12.7574 42.0698 13.127 42.5249 13.127H44.5585Z" fill="white" stroke="white" stroke-width="0.5"/>
<path d="M40.6143 6.90873L42.0523 5.4804C42.3751 5.15923 42.3767 4.63632 42.0555 4.31353C41.7343 3.99075 41.2114 3.98752 40.8886 4.31031L39.4506 5.73863C39.1278 6.0598 39.1262 6.58272 39.4474 6.9055C39.6088 7.06851 39.8202 7.14921 40.0316 7.14921C40.2431 7.14921 40.4529 7.06851 40.6126 6.90873H40.6143Z" fill="white" stroke="white" stroke-width="0.5"/>
</svg>
