<svg width="180" height="48" viewBox="0 0 180 48" fill="none" xmlns="http://www.w3.org/2000/svg">
<path d="M14.3565 13.0904L13.9856 18.3174H0.248413V17.4382C0.445029 17.4234 0.734388 17.3937 1.10907 17.3529C1.48375 17.3121 1.74715 17.2602 1.89553 17.1934C2.14409 17.0858 2.32215 16.93 2.43345 16.7223C2.54474 16.5145 2.60038 16.2511 2.60038 15.9284V3.34125C2.60038 3.05931 2.55216 2.81446 2.45941 2.5993C2.36296 2.38413 2.17747 2.20978 1.89553 2.07994C1.70634 1.97977 1.43924 1.88332 1.09794 1.79058C0.756647 1.69412 0.470997 1.63848 0.248413 1.62364V0.740723H7.66788V1.61993C7.43788 1.62735 7.13739 1.66816 6.77012 1.74235C6.40286 1.81655 6.13576 1.88332 5.97253 1.93897C5.69059 2.03913 5.5014 2.20607 5.39752 2.4472C5.29365 2.68833 5.24171 2.94059 5.24171 3.21512V15.0195C5.24171 15.5648 5.26768 15.9877 5.32333 16.2882C5.37526 16.5887 5.5014 16.8224 5.70172 16.9894C5.89092 17.1377 6.17286 17.2342 6.55125 17.2787C6.92593 17.3232 7.45272 17.3455 8.1316 17.3455C8.43579 17.3455 8.75483 17.3381 9.085 17.3195C9.41516 17.3047 9.73049 17.2713 10.0273 17.2194C10.3166 17.1711 10.5837 17.1006 10.8249 17.0153C11.0697 16.93 11.2478 16.8187 11.3628 16.6889C11.7004 16.3105 12.0973 15.7318 12.5462 14.9601C12.9951 14.1885 13.3067 13.5616 13.481 13.083H14.3602L14.3565 13.0904Z" fill="white"/>
<path d="M26.0869 15.4422C25.5749 16.4178 24.8886 17.1932 24.0317 17.7719C23.171 18.3506 22.188 18.64 21.0713 18.64C20.0882 18.64 19.2276 18.4656 18.4893 18.1206C17.7511 17.7756 17.1427 17.3045 16.6642 16.7072C16.1856 16.1136 15.8295 15.4199 15.592 14.626C15.3583 13.8321 15.2396 12.9937 15.2396 12.1108C15.2396 11.3169 15.3658 10.5416 15.618 9.77741C15.8703 9.0132 16.2375 8.3269 16.7272 7.7148C17.1984 7.12866 17.7808 6.65381 18.4782 6.29768C19.1757 5.93783 19.9584 5.75977 20.8265 5.75977C21.6946 5.75977 22.481 5.90074 23.1191 6.17897C23.7535 6.46091 24.2691 6.84301 24.6661 7.33269C25.0444 7.79641 25.3301 8.34174 25.5156 8.96869C25.7011 9.59563 25.7938 10.2782 25.7938 11.0127V11.8289H17.7066C17.7066 12.6302 17.7845 13.361 17.9366 14.0139C18.0887 14.6668 18.3298 15.2418 18.66 15.7389C18.9827 16.2175 19.4019 16.5959 19.925 16.8741C20.4444 17.1524 21.0639 17.2896 21.7836 17.2896C22.5033 17.2896 23.1525 17.119 23.683 16.774C24.2172 16.429 24.7291 15.8094 25.2262 14.9117L26.0943 15.4459L26.0869 15.4422ZM23.3491 10.7865C23.3491 10.3264 23.3083 9.83305 23.2304 9.30627C23.1525 8.77949 23.0264 8.33803 22.852 7.98561C22.6628 7.60721 22.4031 7.29931 22.073 7.05817C21.7428 6.82075 21.3162 6.69833 20.7968 6.69833C19.9287 6.69833 19.209 7.05817 18.634 7.77786C18.059 8.49755 17.7474 9.49918 17.6992 10.7865H23.3454H23.3491Z" fill="white"/>
<path d="M40.9851 18.3177H35.0162V17.5015C35.2054 17.4867 35.4131 17.4681 35.6431 17.4533C35.8694 17.4385 36.0586 17.4051 36.207 17.3531C36.437 17.2789 36.6076 17.1491 36.7189 16.9636C36.8302 16.7781 36.8859 16.537 36.8859 16.2402V9.95963C36.8859 9.09155 36.6818 8.4238 36.2701 7.95266C35.8583 7.48153 35.3612 7.24782 34.775 7.24782C34.3373 7.24782 33.9366 7.31459 33.5694 7.45185C33.2058 7.58911 32.8831 7.75605 32.6011 7.95266C32.3266 8.14186 32.1115 8.3459 31.9482 8.56477C31.7887 8.78364 31.67 8.958 31.5958 9.09155V16.1141C31.5958 16.396 31.6552 16.626 31.7702 16.8078C31.8852 16.9896 32.0595 17.1305 32.2895 17.2307C32.4639 17.3123 32.6494 17.3754 32.8534 17.4162C33.0537 17.457 33.2652 17.4867 33.4803 17.5015V18.3177H27.4965V17.5015C27.6857 17.4867 27.8824 17.4681 28.0864 17.4533C28.2867 17.4385 28.4648 17.4051 28.6132 17.3531C28.8432 17.2789 29.0138 17.1491 29.1288 16.9636C29.2401 16.7781 29.2958 16.537 29.2958 16.2402V8.70574C29.2958 8.4238 29.2364 8.16783 29.1177 7.93412C28.999 7.7004 28.832 7.5075 28.6169 7.35911C28.4611 7.25894 28.2756 7.18846 28.0604 7.14394C27.8453 7.09943 27.6153 7.06604 27.3667 7.0512V6.23506L31.4289 5.96425L31.6032 6.13861V7.85992H31.6663C31.8629 7.66331 32.1114 7.42588 32.4082 7.14765C32.705 6.86942 32.9869 6.64684 33.2503 6.47248C33.5545 6.27587 33.9181 6.10893 34.341 5.97909C34.7602 5.84554 35.2388 5.78247 35.7655 5.78247C36.9378 5.78247 37.8059 6.14602 38.3735 6.88055C38.9374 7.61137 39.223 8.58332 39.223 9.7964V16.1512C39.223 16.4405 39.2712 16.6742 39.3714 16.8523C39.4716 17.0304 39.6385 17.1676 39.8796 17.2678C40.0762 17.3494 40.2506 17.4088 40.3953 17.4422C40.54 17.4755 40.7403 17.5015 40.9963 17.5164V18.3325L40.9851 18.3177Z" fill="white"/>
<path d="M55.5793 18.0952L51.5913 18.366L51.4058 18.1917V16.6447H51.3316C51.135 16.8525 50.9124 17.0713 50.6639 17.3088C50.4153 17.5425 50.1334 17.7576 49.8106 17.9468C49.4397 18.1694 49.0798 18.3401 48.7348 18.4551C48.3898 18.5701 47.9001 18.6294 47.262 18.6294C46.1825 18.6294 45.3589 18.277 44.7951 17.5722C44.2312 16.8673 43.9493 15.8434 43.9493 14.4968V8.65767C43.9493 8.36089 43.8936 8.11234 43.7823 7.9083C43.671 7.70798 43.5041 7.52991 43.2889 7.38152C43.1405 7.28136 42.9513 7.21087 42.7287 7.16636C42.5062 7.12184 42.2687 7.08845 42.0165 7.07361V6.25747L46.0898 5.96069L46.2753 6.13505V14.6192C46.2753 15.5021 46.4719 16.1662 46.8688 16.615C47.2658 17.0639 47.7406 17.2828 48.2933 17.2828C48.7459 17.2828 49.1503 17.2123 49.5064 17.0713C49.8626 16.9304 50.1593 16.7671 50.3968 16.578C50.6194 16.4036 50.816 16.2218 50.9866 16.0289C51.1573 15.836 51.2871 15.6542 51.3761 15.491V8.57606C51.3761 8.30525 51.3168 8.06411 51.2018 7.85266C51.0868 7.6412 50.9235 7.46314 50.7195 7.31475C50.5711 7.21458 50.3485 7.15523 50.0555 7.13668C49.7624 7.11442 49.4359 7.09587 49.0724 7.08103V6.26489L53.5204 5.96811L53.7059 6.14247V15.8286C53.7059 16.1105 53.7652 16.3479 53.8802 16.5483C53.9952 16.7449 54.1584 16.9155 54.3625 17.0565C54.5109 17.1493 54.6889 17.2086 54.8967 17.2346C55.1044 17.2605 55.3307 17.2828 55.5793 17.2902V18.1064V18.0952Z" fill="white"/>
<path d="M65.1394 12.3337C65.4769 12.6305 65.7366 12.9755 65.9184 13.3613C66.1002 13.7508 66.1892 14.2257 66.1892 14.7858C66.1892 15.9173 65.7663 16.841 64.9205 17.5607C64.0747 18.2804 62.9766 18.6365 61.6337 18.6365C60.9214 18.6365 60.2685 18.5104 59.6712 18.2507C59.0739 17.9948 58.6436 17.761 58.3876 17.5459L58.1391 18.3509H57.2117L57.0892 14.1032H57.9425C58.0092 14.426 58.1502 14.8044 58.3654 15.2347C58.5805 15.665 58.8402 16.0546 59.1444 16.4033C59.4672 16.7668 59.853 17.0747 60.3019 17.3233C60.7507 17.5718 61.259 17.6943 61.8191 17.6943C62.613 17.6943 63.2214 17.5125 63.6518 17.1526C64.0821 16.7928 64.2972 16.2734 64.2972 15.602C64.2972 15.2533 64.2305 14.9565 64.0932 14.7042C63.956 14.452 63.7556 14.2331 63.4922 14.0402C63.2214 13.851 62.8838 13.6803 62.4906 13.5245C62.0974 13.3687 61.6522 13.2203 61.1662 13.0719C60.7767 12.9569 60.3464 12.7974 59.8715 12.5934C59.3967 12.3893 58.9886 12.1519 58.651 11.8811C58.2875 11.5918 57.9907 11.2356 57.7607 10.8164C57.5307 10.3972 57.4157 9.90011 57.4157 9.32881C57.4157 8.3309 57.7867 7.48508 58.5286 6.79136C59.2706 6.09764 60.2685 5.75263 61.5149 5.75263C61.9935 5.75263 62.4832 5.8157 62.984 5.93812C63.4848 6.06054 63.8892 6.21264 64.2045 6.38329L64.4902 5.73779H65.3805L65.566 9.66269H64.7127C64.5384 8.78348 64.1674 8.06751 63.5924 7.51847C63.0174 6.96571 62.32 6.69119 61.4927 6.69119C60.8138 6.69119 60.2833 6.86184 59.8938 7.20314C59.5043 7.54443 59.3114 7.95621 59.3114 8.43848C59.3114 8.80945 59.3744 9.12107 59.5043 9.36591C59.6304 9.61446 59.8233 9.82592 60.0793 9.99657C60.3278 10.1635 60.6394 10.3156 61.0141 10.4603C61.3888 10.605 61.8525 10.7682 62.409 10.95C62.9543 11.1243 63.4663 11.3247 63.9522 11.5584C64.4345 11.7884 64.8352 12.0443 65.1468 12.3263L65.1394 12.3337Z" fill="white"/>
<path d="M7.98335 42.3493C6.9372 42.3493 5.93186 42.1415 4.97104 41.7297C4.01022 41.318 3.15698 40.7207 2.41504 39.9453C1.68051 39.17 1.09437 38.2203 0.656623 37.1C0.218874 35.9796 0 34.7183 0 33.3123C0 31.9064 0.215165 30.6339 0.641784 29.4876C1.07211 28.345 1.66567 27.3582 2.42246 26.531C3.17182 25.7111 4.05845 25.0805 5.08233 24.6353C6.10622 24.1901 7.19688 23.9675 8.36174 23.9675C9.22611 23.9675 10.0126 24.0751 10.7137 24.2903C11.4149 24.5054 12.0826 24.8059 12.717 25.1955L13.2252 24.3533H14.2157L14.327 30.6191H13.3105C13.177 30.007 12.9804 29.3466 12.717 28.6307C12.4536 27.9184 12.142 27.31 11.7895 26.8166C11.3926 26.2564 10.9252 25.815 10.3798 25.4959C9.8345 25.1769 9.21127 25.0174 8.51013 25.0174C7.70883 25.0174 6.96688 25.1954 6.27687 25.5516C5.58686 25.9077 4.9933 26.4308 4.48878 27.1245C4.01022 27.796 3.63554 28.6455 3.36102 29.6768C3.09021 30.7118 2.95295 31.8618 2.95295 33.1343C2.95295 34.2583 3.09392 35.2896 3.37957 36.2282C3.66522 37.1668 4.06958 37.9903 4.60007 38.7026C5.12685 39.4037 5.7538 39.9565 6.47349 40.3497C7.19317 40.7429 8.0019 40.9433 8.89223 40.9433C9.55998 40.9433 10.1758 40.8394 10.736 40.6279C11.2961 40.4165 11.7821 40.1383 12.1976 39.7932C12.6094 39.4297 12.9729 39.0179 13.2846 38.5542C13.5999 38.0905 13.8521 37.5897 14.0525 37.0443L14.9799 37.4895C14.2713 39.2331 13.3291 40.4758 12.1568 41.2252C10.9845 41.9709 9.58966 42.3455 7.97222 42.3455L7.98335 42.3493Z" fill="white"/>
<path d="M27.7824 41.7073C27.3929 41.8482 27.0553 41.9595 26.7622 42.0486C26.4691 42.1339 26.1353 42.1784 25.7643 42.1784C25.1188 42.1784 24.6069 42.0263 24.221 41.7258C23.8352 41.4253 23.5904 40.9839 23.4828 40.4052H23.4086C22.8707 40.9987 22.2957 41.455 21.6799 41.7666C21.0641 42.0782 20.3221 42.2378 19.4577 42.2378C18.5414 42.2378 17.7884 41.9558 17.1985 41.3957C16.6087 40.8355 16.3119 40.101 16.3119 39.1921C16.3119 38.7209 16.3787 38.3017 16.5085 37.9271C16.6421 37.5561 16.8387 37.2222 17.1021 36.9217C17.3098 36.6732 17.5806 36.4543 17.9182 36.2577C18.2558 36.0648 18.5748 35.909 18.8716 35.794C19.2426 35.653 19.9957 35.3933 21.1308 35.0149C22.266 34.6365 23.0339 34.336 23.4272 34.1246V32.8967C23.4272 32.7891 23.4049 32.5813 23.3604 32.2771C23.3159 31.9729 23.2194 31.6836 23.0673 31.4091C22.9004 31.1049 22.6704 30.8378 22.3662 30.6115C22.0657 30.3852 21.6391 30.2702 21.0826 30.2702C20.7042 30.2702 20.3481 30.3332 20.0253 30.4631C19.6989 30.5929 19.4689 30.7265 19.339 30.8637C19.339 31.0307 19.3798 31.2718 19.4577 31.5945C19.5356 31.9173 19.5765 32.2141 19.5765 32.4849C19.5765 32.7742 19.4466 33.0376 19.1869 33.2788C18.9273 33.5199 18.5637 33.6386 18.1037 33.6386C17.6919 33.6386 17.3877 33.4902 17.1948 33.1971C17.0019 32.9041 16.9054 32.5776 16.9054 32.2141C16.9054 31.8505 17.039 31.4721 17.3061 31.1234C17.5732 30.7784 17.9219 30.4668 18.3522 30.196C18.7232 29.966 19.1721 29.7693 19.7026 29.6061C20.2294 29.4466 20.7487 29.365 21.2495 29.365C21.9433 29.365 22.548 29.4132 23.0636 29.506C23.5793 29.6024 24.0467 29.8064 24.4696 30.1181C24.8888 30.4223 25.2115 30.8378 25.4304 31.3645C25.6493 31.8876 25.7569 32.5628 25.7569 33.3901C25.7569 34.5697 25.7457 35.6159 25.7198 36.5285C25.6938 37.4411 25.6827 38.439 25.6827 39.5185C25.6827 39.8413 25.7383 40.0972 25.8496 40.2864C25.9609 40.4756 26.1316 40.6389 26.3653 40.7687C26.4877 40.8429 26.6843 40.8837 26.9551 40.8911C27.2222 40.8986 27.4967 40.9023 27.7787 40.9023V41.6961L27.7824 41.7073ZM23.4605 35.167C22.7594 35.3748 22.1436 35.5751 21.6168 35.7754C21.09 35.9757 20.5966 36.2243 20.144 36.5211C19.7323 36.803 19.4058 37.1369 19.1647 37.519C18.9235 37.9011 18.8048 38.3611 18.8048 38.8916C18.8048 39.5779 18.9829 40.0824 19.3427 40.4052C19.7026 40.7279 20.1589 40.8874 20.7116 40.8874C21.2978 40.8874 21.8134 40.7465 22.2586 40.4608C22.7038 40.1752 23.0784 39.8376 23.3864 39.448L23.4605 35.167Z" fill="white"/>
<path d="M40.158 31.1645C40.644 31.7432 41.0224 32.4146 41.2932 33.1788C41.5603 33.9431 41.6939 34.8148 41.6939 35.7979C41.6939 36.781 41.5343 37.6454 41.2116 38.443C40.8889 39.2405 40.4659 39.9194 39.9355 40.4796C39.3827 41.0509 38.7669 41.4887 38.088 41.7928C37.4091 42.097 36.6931 42.2529 35.9327 42.2529C35.1722 42.2529 34.5934 42.1712 34.126 42.0043C33.6549 41.8374 33.2728 41.6445 32.9723 41.4219H32.8721V45.0982C32.8721 45.395 32.9315 45.6436 33.0465 45.8439C33.1615 46.0442 33.3395 46.1889 33.5807 46.2779C33.7773 46.3521 34.0629 46.4263 34.4302 46.4931C34.7975 46.5599 35.1017 46.6044 35.3391 46.6118V47.4279H28.5132V46.6118C28.7692 46.597 29.0177 46.5747 29.2551 46.5487C29.4926 46.5228 29.7077 46.482 29.9006 46.4263C30.1492 46.3447 30.3198 46.2 30.42 45.9923C30.5201 45.7845 30.5684 45.5434 30.5684 45.2614V32.27C30.5684 32.0214 30.5053 31.784 30.3829 31.5503C30.2605 31.3166 30.0972 31.1348 29.9006 30.9938C29.7522 30.8937 29.5445 30.8195 29.2811 30.7638C29.0177 30.7119 28.7617 30.6748 28.5132 30.6599V29.8438L32.6755 29.5693L32.8499 29.7177V31.094L32.95 31.1199C33.3804 30.6228 33.9108 30.2111 34.5489 29.8809C35.1833 29.5507 35.8176 29.3838 36.4446 29.3838C37.2051 29.3838 37.8988 29.5433 38.5332 29.8661C39.1675 30.1888 39.7092 30.6228 40.1617 31.1682L40.158 31.1645ZM38.1362 39.9491C38.4664 39.4372 38.7112 38.8436 38.867 38.1647C39.0229 37.4896 39.1008 36.7328 39.1008 35.8981C39.1008 35.286 39.034 34.6627 38.9041 34.0284C38.7706 33.394 38.5666 32.8376 38.2846 32.3701C38.0027 31.8916 37.6354 31.502 37.1828 31.2053C36.7302 30.9085 36.1849 30.7601 35.5468 30.7601C34.9088 30.7601 34.4154 30.8937 33.985 31.1608C33.5547 31.4279 33.1837 31.7506 32.8684 32.1216V39.3444C32.9426 39.567 33.065 39.797 33.2357 40.0381C33.4063 40.2793 33.5918 40.4833 33.7996 40.6577C34.0555 40.8654 34.3338 41.0324 34.6305 41.1585C34.9273 41.2883 35.2909 41.3514 35.7212 41.3514C36.1849 41.3514 36.6301 41.229 37.0604 40.9841C37.4907 40.7393 37.8469 40.3943 38.1362 39.9491Z" fill="white"/>
<path d="M49.41 41.9297H43.5152V41.1135C43.7044 41.0987 43.901 41.0801 44.1051 41.0653C44.3054 41.0504 44.4835 41.0171 44.6319 40.9651C44.8619 40.8909 45.0325 40.7611 45.1475 40.5756C45.2588 40.3901 45.3145 40.149 45.3145 39.8522V32.3177C45.3145 32.0543 45.2551 31.8132 45.1364 31.5943C45.0177 31.3755 44.8507 31.1937 44.6356 31.0453C44.4798 30.9451 44.2498 30.8598 43.953 30.793C43.6562 30.7225 43.3817 30.678 43.1368 30.6632V29.847L47.4476 29.5725L47.6219 29.7469V39.7038C47.6219 39.9932 47.6776 40.2306 47.7888 40.4235C47.9001 40.6127 48.0745 40.7537 48.3119 40.8427C48.4937 40.9169 48.6681 40.9763 48.8424 41.0208C49.0131 41.0653 49.206 41.0987 49.4211 41.1135V41.9297H49.41ZM47.8593 24.7499C47.8593 25.221 47.7035 25.6328 47.3956 25.9815C47.0877 26.3339 46.7056 26.5083 46.2493 26.5083C45.8264 26.5083 45.4628 26.3414 45.1512 26.0075C44.8396 25.6736 44.6875 25.2915 44.6875 24.8612C44.6875 24.4086 44.8433 24.0116 45.1512 23.6703C45.4591 23.3328 45.8264 23.1621 46.2493 23.1621C46.7204 23.1621 47.1063 23.3216 47.4067 23.6407C47.7072 23.9597 47.8593 24.327 47.8593 24.7499Z" fill="white"/>
<path d="M58.4616 41.3956C57.9237 41.6182 57.4155 41.8074 56.9369 41.9595C56.4583 42.1116 55.8722 42.1895 55.1785 42.1895C54.1546 42.1895 53.4349 41.9298 53.0157 41.4142C52.6002 40.8985 52.3888 40.1677 52.3888 39.2291V30.9564H50.1852V29.7656H52.4407V25.9631H54.6962V29.7656H58.2019V30.9564H54.7222V37.7823C54.7222 38.2943 54.7407 38.7209 54.7778 39.0659C54.8149 39.4072 54.904 39.7077 55.0449 39.9637C55.1785 40.2048 55.3751 40.3829 55.6385 40.509C55.9019 40.6314 56.258 40.6945 56.7032 40.6945C56.9109 40.6945 57.2114 40.6759 57.6121 40.6388C58.0127 40.6017 58.2947 40.5535 58.4616 40.4979V41.403V41.3956Z" fill="white"/>
<path d="M71.2455 41.7073C70.856 41.8482 70.5184 41.9595 70.2253 42.0486C69.9323 42.1339 69.5984 42.1784 69.2274 42.1784C68.5819 42.1784 68.07 42.0263 67.6842 41.7258C67.2984 41.4253 67.0535 40.9839 66.9459 40.4052H66.8717C66.3338 40.9987 65.7588 41.455 65.143 41.7666C64.5272 42.0782 63.7852 42.2378 62.9209 42.2378C62.0046 42.2378 61.2515 41.9558 60.6617 41.3957C60.0718 40.8355 59.775 40.101 59.775 39.1921C59.775 38.7209 59.8418 38.3017 59.9716 37.9271C60.1052 37.5561 60.3018 37.2222 60.5652 36.9217C60.7729 36.6732 61.0438 36.4543 61.3813 36.2577C61.7189 36.0648 62.038 35.909 62.3347 35.794C62.7057 35.653 63.4588 35.3933 64.594 35.0149C65.7291 34.6365 66.4971 34.336 66.8903 34.1246V32.8967C66.8903 32.7891 66.868 32.5813 66.8235 32.2771C66.779 31.9729 66.6825 31.6836 66.5304 31.4091C66.3635 31.1049 66.1335 30.8378 65.8293 30.6115C65.5288 30.3852 65.1022 30.2702 64.5457 30.2702C64.1673 30.2702 63.8112 30.3332 63.4885 30.4631C63.162 30.5929 62.932 30.7265 62.8022 30.8637C62.8022 31.0307 62.843 31.2718 62.9209 31.5945C62.9988 31.9173 63.0396 32.2141 63.0396 32.4849C63.0396 32.7742 62.9097 33.0376 62.6501 33.2788C62.3904 33.5199 62.0268 33.6386 61.5668 33.6386C61.155 33.6386 60.8508 33.4902 60.6579 33.1971C60.465 32.9041 60.3686 32.5776 60.3686 32.2141C60.3686 31.8505 60.5021 31.4721 60.7692 31.1234C61.0363 30.7784 61.385 30.4668 61.8154 30.196C62.1864 29.966 62.6352 29.7693 63.1657 29.6061C63.6925 29.4466 64.2119 29.365 64.7127 29.365C65.4064 29.365 66.0111 29.4132 66.5267 29.506C67.0424 29.6024 67.5098 29.8064 67.9327 30.1181C68.3519 30.4223 68.6747 30.8378 68.8935 31.3645C69.1124 31.8876 69.22 32.5628 69.22 33.3901C69.22 34.5697 69.2089 35.6159 69.1829 36.5285C69.1569 37.4411 69.1458 38.439 69.1458 39.5185C69.1458 39.8413 69.2015 40.0972 69.3127 40.2864C69.424 40.4756 69.5947 40.6389 69.8284 40.7687C69.9508 40.8429 70.1474 40.8837 70.4183 40.8911C70.6854 40.8986 70.9599 40.9023 71.2418 40.9023V41.6961L71.2455 41.7073ZM66.9237 35.167C66.2225 35.3748 65.6067 35.5751 65.0799 35.7754C64.5532 35.9757 64.0598 36.2243 63.6072 36.5211C63.1954 36.803 62.8689 37.1369 62.6278 37.519C62.3867 37.9011 62.268 38.3611 62.268 38.8916C62.268 39.5779 62.446 40.0824 62.8059 40.4052C63.1657 40.7279 63.622 40.8874 64.1748 40.8874C64.7609 40.8874 65.2766 40.7465 65.7217 40.4608C66.1669 40.1752 66.5416 39.8376 66.8495 39.448L66.9237 35.167Z" fill="white"/>
<path d="M78.1827 41.93H72.2248V41.1139C72.414 41.099 72.6181 41.0805 72.8332 41.0582C73.0484 41.036 73.2265 41.0063 73.3674 40.9655C73.5974 40.8913 73.7718 40.7614 73.8868 40.576C74.0018 40.3905 74.0612 40.1493 74.0612 39.8488V25.6925C74.0612 25.3957 73.9981 25.1175 73.8683 24.8541C73.7384 24.5944 73.5715 24.3904 73.3674 24.242C73.2191 24.1418 72.9445 24.0528 72.5513 23.9675C72.1581 23.8822 71.8353 23.8339 71.5979 23.8191V23.0252L76.1943 22.7544L76.3686 22.9399V39.6967C76.3686 39.9861 76.4206 40.2235 76.5281 40.409C76.6357 40.5945 76.8101 40.7355 77.0475 40.8356C77.2293 40.9172 77.4073 40.9803 77.5854 41.0211C77.7635 41.0619 77.9638 41.0916 78.1864 41.1064V41.9226L78.1827 41.93Z" fill="white"/>
<path d="M99.6099 28.6895C99.6099 29.6058 99.4318 30.4182 99.072 31.123C98.7121 31.8279 98.215 32.414 97.5807 32.874C96.9537 33.3378 96.2637 33.6753 95.5106 33.8905C94.7576 34.1057 93.9637 34.2133 93.1216 34.2133H91.1517V39.5404C91.1517 39.8298 91.1999 40.0821 91.2927 40.3009C91.3854 40.5198 91.582 40.6867 91.8825 40.8017C92.0309 40.8611 92.2943 40.913 92.669 40.9613C93.0437 41.0095 93.3887 41.0392 93.704 41.0466V41.9258H86.1621V41.0466C86.3587 41.0317 86.6481 41.0021 87.0228 40.9613C87.3974 40.9205 87.6608 40.8648 87.8092 40.8017C88.0578 40.6942 88.2358 40.5383 88.3471 40.3306C88.4584 40.1229 88.5141 39.8595 88.5141 39.5367V26.8531C88.5141 26.5638 88.4733 26.3041 88.3917 26.0741C88.31 25.8441 88.1134 25.6697 87.8092 25.5547C87.4939 25.4472 87.1823 25.3692 86.8744 25.3247C86.5665 25.2802 86.2994 25.2468 86.0768 25.232V24.3528H94.1046C95.7406 24.3528 97.065 24.746 98.0852 25.5362C99.1054 26.3264 99.6136 27.3762 99.6136 28.6895H99.6099ZM95.8445 31.6869C96.1264 31.29 96.3119 30.8782 96.401 30.4553C96.49 30.0324 96.5382 29.6466 96.5382 29.309C96.5382 28.8379 96.4826 28.3593 96.3713 27.8733C96.26 27.3873 96.0671 26.9607 95.7963 26.5972C95.5069 26.2076 95.1285 25.9072 94.6574 25.692C94.1863 25.4768 93.6001 25.3692 92.899 25.3692H91.1517V33.1337H92.4167C93.3071 33.1337 94.0342 32.9965 94.5906 32.7182C95.1471 32.44 95.5663 32.0987 95.8482 31.6832L95.8445 31.6869Z" fill="white"/>
<path d="M112.876 41.7073C112.49 41.8482 112.149 41.9595 111.856 42.0486C111.563 42.1339 111.229 42.1784 110.858 42.1784C110.213 42.1784 109.701 42.0263 109.315 41.7258C108.929 41.4253 108.684 40.9839 108.577 40.4052H108.502C107.964 40.9987 107.389 41.455 106.774 41.7666C106.158 42.0782 105.416 42.2378 104.551 42.2378C103.635 42.2378 102.882 41.9558 102.292 41.3957C101.702 40.8355 101.406 40.101 101.406 39.1921C101.406 38.7209 101.472 38.3017 101.606 37.9271C101.74 37.5561 101.936 37.2222 102.2 36.9217C102.407 36.6732 102.678 36.4543 103.019 36.2577C103.357 36.0648 103.676 35.909 103.973 35.794C104.344 35.653 105.097 35.3933 106.232 35.0149C107.367 34.6365 108.131 34.336 108.528 34.1246V32.8967C108.528 32.7891 108.506 32.5813 108.462 32.2771C108.417 31.9729 108.321 31.6836 108.168 31.4091C108.002 31.1049 107.772 30.8378 107.467 30.6115C107.167 30.3852 106.74 30.2702 106.184 30.2702C105.805 30.2702 105.449 30.3332 105.123 30.4631C104.796 30.5929 104.566 30.7265 104.436 30.8637C104.436 31.0307 104.477 31.2718 104.555 31.5945C104.633 31.9173 104.674 32.2141 104.674 32.4849C104.674 32.7742 104.544 33.0376 104.284 33.2788C104.025 33.5199 103.661 33.6386 103.201 33.6386C102.789 33.6386 102.485 33.4902 102.292 33.1971C102.099 32.9041 101.999 32.5776 101.999 32.2141C101.999 31.8505 102.133 31.4721 102.404 31.1234C102.671 30.7784 103.019 30.4668 103.45 30.196C103.821 29.966 104.27 29.7693 104.8 29.6061C105.331 29.4466 105.846 29.365 106.347 29.365C107.041 29.365 107.645 29.4132 108.161 29.506C108.677 29.6024 109.144 29.8064 109.567 30.1181C109.986 30.4223 110.309 30.8378 110.528 31.3645C110.747 31.8876 110.854 32.5628 110.854 33.3901C110.854 34.5697 110.843 35.6159 110.817 36.5285C110.791 37.4411 110.78 38.439 110.78 39.5185C110.78 39.8413 110.836 40.0972 110.947 40.2864C111.058 40.4756 111.229 40.6389 111.463 40.7687C111.585 40.8429 111.782 40.8837 112.053 40.8911C112.32 40.8986 112.594 40.9023 112.876 40.9023V41.6961V41.7073ZM108.554 35.167C107.853 35.3748 107.237 35.5751 106.711 35.7754C106.184 35.9757 105.69 36.2243 105.238 36.5211C104.826 36.803 104.5 37.1369 104.258 37.519C104.021 37.9048 103.899 38.3611 103.899 38.8916C103.899 39.5779 104.077 40.0824 104.436 40.4052C104.796 40.7279 105.253 40.8874 105.805 40.8874C106.392 40.8874 106.907 40.7465 107.352 40.4608C107.798 40.1752 108.172 39.8376 108.48 39.448L108.554 35.167Z" fill="white"/>
<path d="M123.441 31.2904C123.441 31.7096 123.337 32.0842 123.133 32.4107C122.926 32.7372 122.61 32.9004 122.18 32.9004C121.716 32.9004 121.364 32.7817 121.123 32.5405C120.878 32.2994 120.755 32.036 120.755 31.7467C120.755 31.5649 120.77 31.3979 120.8 31.2496C120.83 31.1012 120.856 30.9528 120.882 30.8044C120.492 30.8044 120.04 30.9602 119.52 31.2755C119.001 31.5908 118.559 32.036 118.196 32.6147V39.7263C118.196 40.0157 118.251 40.2494 118.363 40.4311C118.474 40.6129 118.648 40.7502 118.889 40.8392C119.097 40.9208 119.361 40.9839 119.687 41.0247C120.014 41.0655 120.295 41.0952 120.537 41.11V41.9262H114.097V41.11C114.286 41.0952 114.482 41.0766 114.686 41.0618C114.887 41.047 115.065 41.0136 115.213 40.9616C115.443 40.8874 115.614 40.7576 115.729 40.5721C115.84 40.3866 115.896 40.1455 115.896 39.8487V32.3142C115.896 32.0583 115.836 31.806 115.718 31.5612C115.599 31.3126 115.432 31.116 115.217 30.9676C115.061 30.8675 114.876 30.797 114.66 30.7525C114.445 30.7079 114.215 30.6745 113.967 30.6597V29.8436L118.029 29.569L118.203 29.7434V31.4647H118.266C118.778 30.797 119.35 30.2887 119.976 29.94C120.603 29.595 121.178 29.4207 121.698 29.4207C122.217 29.4207 122.64 29.5913 122.966 29.9289C123.293 30.2665 123.456 30.7228 123.456 31.2904H123.441Z" fill="white"/>
<path d="M132.026 41.3956C131.488 41.6182 130.979 41.8074 130.501 41.9595C130.022 42.1116 129.436 42.1895 128.742 42.1895C127.719 42.1895 126.999 41.9298 126.58 41.4142C126.16 40.8985 125.953 40.1677 125.953 39.2291V30.9564H123.749V29.7656H126.005V25.9631H128.26V29.7656H131.766V30.9564H128.286V37.7823C128.286 38.2943 128.305 38.7209 128.342 39.0659C128.379 39.4072 128.468 39.7077 128.609 39.9637C128.742 40.2048 128.939 40.3829 129.202 40.509C129.466 40.6314 129.822 40.6945 130.267 40.6945C130.475 40.6945 130.779 40.6759 131.176 40.6388C131.577 40.6017 131.859 40.5535 132.026 40.4979V41.403V41.3956Z" fill="white"/>
<path d="M146.728 41.9301H140.759V41.114C140.948 41.0991 141.156 41.0806 141.386 41.0657C141.612 41.0509 141.801 41.0175 141.95 40.9656C142.18 40.8914 142.35 40.7615 142.465 40.5761C142.58 40.3906 142.632 40.1494 142.632 39.8527V33.5721C142.632 32.704 142.428 32.0362 142.016 31.5651C141.604 31.094 141.107 30.8603 140.521 30.8603C140.084 30.8603 139.679 30.927 139.316 31.0643C138.952 31.2016 138.629 31.3685 138.347 31.5651C138.073 31.7543 137.858 31.9583 137.694 32.1772C137.535 32.3961 137.416 32.5705 137.342 32.704V39.7265C137.342 40.0085 137.401 40.2385 137.516 40.4202C137.631 40.602 137.806 40.743 138.036 40.8394C138.21 40.9211 138.396 40.9841 138.6 41.0249C138.8 41.0657 139.011 41.0954 139.227 41.1103V41.9264H133.243V41.1103C133.432 41.0954 133.629 41.0769 133.833 41.062C134.033 41.0472 134.211 41.0138 134.359 40.9619C134.589 40.8877 134.76 40.7578 134.875 40.5723C134.986 40.3869 135.042 40.1457 135.042 39.8489V32.3145C135.042 32.0325 134.983 31.7766 134.864 31.5429C134.745 31.3091 134.578 31.1162 134.363 30.9678C134.207 30.8677 134.022 30.7972 133.807 30.7527C133.591 30.7082 133.361 30.6748 133.113 30.6599V29.8438L137.175 29.5693L137.349 29.7436V31.4649H137.412C137.609 31.2683 137.858 31.0309 138.154 30.7527C138.451 30.4745 138.733 30.2519 138.997 30.0775C139.301 29.8809 139.664 29.714 140.087 29.5841C140.506 29.4506 140.981 29.3838 141.512 29.3838C142.684 29.3838 143.552 29.7511 144.12 30.4819C144.684 31.2127 144.969 32.1846 144.969 33.3977V39.7525C144.969 40.0419 145.017 40.2756 145.118 40.4536C145.218 40.6317 145.385 40.769 145.626 40.8691C145.822 40.9507 145.997 41.0101 146.138 41.0435C146.282 41.0769 146.483 41.1028 146.739 41.1177V41.9338L146.728 41.9301Z" fill="white"/>
<path d="M159.077 39.055C158.565 40.0306 157.879 40.806 157.022 41.3847C156.161 41.9634 155.174 42.2528 154.061 42.2528C153.078 42.2528 152.218 42.0784 151.479 41.7334C150.741 41.3884 150.133 40.9173 149.654 40.32C149.176 39.7264 148.82 39.0327 148.582 38.2388C148.348 37.4449 148.23 36.6065 148.23 35.7236C148.23 34.9297 148.356 34.1544 148.608 33.3902C148.86 32.626 149.228 31.9397 149.717 31.3276C150.188 30.7414 150.771 30.2703 151.468 29.9105C152.166 29.5506 152.949 29.3726 153.817 29.3726C154.685 29.3726 155.471 29.5135 156.109 29.7955C156.744 30.0774 157.259 30.4595 157.656 30.9455C158.035 31.4092 158.32 31.9545 158.506 32.5815C158.691 33.2084 158.784 33.891 158.784 34.6255V35.4417H150.697C150.697 36.243 150.775 36.9738 150.927 37.6267C151.079 38.2796 151.32 38.8546 151.65 39.3517C151.973 39.8303 152.392 40.2087 152.915 40.4869C153.434 40.7652 154.054 40.9024 154.774 40.9024C155.493 40.9024 156.143 40.7318 156.673 40.3868C157.204 40.0418 157.719 39.4222 158.216 38.5245L159.084 39.0587L159.077 39.055ZM156.339 34.3992C156.339 33.9392 156.298 33.4458 156.22 32.9191C156.143 32.3923 156.016 31.9508 155.842 31.5984C155.653 31.22 155.393 30.9121 155.063 30.671C154.733 30.4335 154.306 30.3111 153.787 30.3111C152.919 30.3111 152.199 30.671 151.624 31.3907C151.049 32.1103 150.738 33.112 150.689 34.3992H156.336H156.339Z" fill="white"/>
<path d="M169.843 31.2904C169.843 31.7096 169.739 32.0842 169.535 32.4107C169.327 32.7372 169.012 32.9004 168.581 32.9004C168.118 32.9004 167.765 32.7817 167.524 32.5405C167.279 32.2994 167.157 32.036 167.157 31.7467C167.157 31.5649 167.172 31.3979 167.201 31.2496C167.231 31.1012 167.257 30.9528 167.283 30.8044C166.893 30.8044 166.441 30.9602 165.921 31.2755C165.402 31.5908 164.961 32.036 164.597 32.6147V39.7263C164.597 40.0157 164.653 40.2494 164.764 40.4311C164.875 40.6129 165.05 40.7502 165.291 40.8392C165.498 40.9208 165.762 40.9839 166.088 41.0247C166.415 41.0655 166.697 41.0952 166.938 41.11V41.9262H160.498V41.11C160.687 41.0952 160.884 41.0766 161.088 41.0618C161.288 41.047 161.466 41.0136 161.614 40.9616C161.844 40.8874 162.015 40.7576 162.13 40.5721C162.241 40.3866 162.297 40.1455 162.297 39.8487V32.3142C162.297 32.0583 162.238 31.806 162.119 31.5612C162 31.3126 161.833 31.116 161.618 30.9676C161.462 30.8675 161.277 30.797 161.062 30.7525C160.846 30.7079 160.616 30.6745 160.368 30.6597V29.8436L164.43 29.569L164.604 29.7434V31.4647H164.667C165.179 30.797 165.751 30.2887 166.378 29.94C167.005 29.595 167.58 29.4207 168.099 29.4207C168.618 29.4207 169.041 29.5913 169.368 29.9289C169.694 30.2665 169.857 30.7228 169.857 31.2904H169.843Z" fill="white"/>
<path d="M178.946 35.9462C179.284 36.2429 179.544 36.5879 179.725 36.9737C179.907 37.3633 180 37.8381 180 38.3983C180 39.5298 179.577 40.4535 178.731 41.1732C177.885 41.8929 176.787 42.2527 175.444 42.2527C174.732 42.2527 174.079 42.1229 173.482 41.8669C172.885 41.6109 172.454 41.3772 172.198 41.162L171.95 41.967H171.022L170.9 37.7194H171.753C171.82 38.0422 171.961 38.4205 172.172 38.8509C172.384 39.2812 172.647 39.6707 172.952 40.0194C173.274 40.383 173.66 40.6909 174.109 40.9395C174.558 41.188 175.066 41.3104 175.626 41.3104C176.42 41.3104 177.029 41.1287 177.459 40.7688C177.889 40.409 178.104 39.8896 178.104 39.2181C178.104 38.8731 178.038 38.5726 177.9 38.3204C177.763 38.0681 177.563 37.8492 177.299 37.6563C177.029 37.4671 176.691 37.2965 176.298 37.1444C175.901 36.9923 175.459 36.8402 174.973 36.6918C174.584 36.5768 174.153 36.4173 173.679 36.2133C173.204 36.0129 172.796 35.7755 172.458 35.501C172.095 35.2116 171.798 34.8555 171.568 34.4363C171.338 34.0171 171.223 33.52 171.223 32.9487C171.223 31.9508 171.594 31.105 172.336 30.4112C173.078 29.7175 174.076 29.3725 175.322 29.3725C175.801 29.3725 176.29 29.4356 176.791 29.558C177.292 29.6804 177.696 29.8288 178.012 30.0032L178.297 29.3577H179.188L179.373 33.2826H178.52C178.345 32.4034 177.974 31.6874 177.399 31.1383C176.824 30.5856 176.127 30.3111 175.3 30.3111C174.621 30.3111 174.09 30.4817 173.701 30.823C173.311 31.1643 173.118 31.5761 173.118 32.0584C173.118 32.4293 173.182 32.7409 173.311 32.9858C173.437 33.2343 173.63 33.4458 173.886 33.6164C174.135 33.7834 174.447 33.9355 174.821 34.0802C175.196 34.2248 175.66 34.3881 176.216 34.5698C176.761 34.7442 177.277 34.9445 177.759 35.1782C178.242 35.4082 178.642 35.6642 178.954 35.9462H178.946Z" fill="white"/>
</svg>
